<?xml version="1.0" encoding="UTF-8"?>
<svg xmlns="http://www.w3.org/2000/svg" version="1.1" viewBox="0 0 534.9 270.8">
  <defs>
    <style>
      .cls-1 {
        font-family: CenturyGothic-Bold, 'Century Gothic';
        font-size: 39px;
        font-weight: 700;
      }

      .cls-2 {
        fill: #3a3a3a;
      }

      .cls-3 {
        fill: #b7b7b7;
      }

      .cls-4 {
        letter-spacing: 0em;
      }

      .cls-5 {
        letter-spacing: 0em;
      }

      .cls-6 {
        letter-spacing: 0em;
      }

      .cls-7 {
        fill: #898989;
      }

      .cls-8 {
        letter-spacing: 0em;
      }
    </style>
  </defs>
  <!-- Generator: Adobe Illustrator 28.7.0, SVG Export Plug-In . SVG Version: 1.2.0 Build 136)  -->
  <g>
    <g id="Layer_1">
      <text class="cls-1" transform="translate(233.1 82.8)"><tspan class="cls-5"><tspan x="0" y="0">Association</tspan></tspan><tspan class="cls-6"><tspan x="0" y="36.8">professionnelle</tspan></tspan><tspan class="cls-8"><tspan x="0" y="73.5">des courtiers</tspan></tspan><tspan class="cls-5"><tspan x="0" y="110.3">immobiliers</tspan></tspan><tspan class="cls-4"><tspan x="0" y="147">du Quebec</tspan></tspan></text>
      <g>
        <path class="cls-2" d="M90.7,126.5c-12.1-9.4-26.8-6.9-35,6-.8,1.2-1.4,1.7-3,1.3-10-2.1-20-4.1-30-6-1.8-.3-2.1-1-1.5-2.7,7.7-23.9,33.3-40.8,58.6-38.5,2.9.3,5.8.8,8.7,1.2.4.8.1,1.6,0,2.5-1.9,7.3-2.1,14.7-1.1,22.2.6,4.8,2.5,9.3,3.4,14Z"/>
        <path class="cls-7" d="M151.2,126.3c14.8-5.2,20.1-21.8,12.6-33.9-.8-1.4-.2-2.1.6-2.9,6.8-7.6,13.5-15.2,20.2-23,1.4-1.6,2-1,3.1.2,7.4,8.7,12,18.7,13.4,30.1,2.3,18-3.1,33.6-15.1,47-.2,0-.4,0-.6,0-.3-.4-.6-.8-1-1.2-9.2-9.2-20.5-14.2-33.3-16.2Z"/>
        <path class="cls-3" d="M121.3,179.6c.2,4.6-.1,9.2,2.1,13.6,4.3,8.3,10.9,12.9,20.3,13.1,2.1,0,2.9.8,3.5,2.7,3,9.2,6,18.4,9.2,27.5.9,2.6.2,3.3-2.2,3.7-21.6,3.1-39.6-3.4-54-19.8-5.2-5.9-8.7-12.8-11-20.4,0-.2,0-.4.1-.6.7,0,1.5,0,2.2-.3,8.7-2.7,16.6-6.9,23.2-13.3,2.2-2.1,3.8-4.7,6.6-6.2Z"/>
        <path class="cls-3" d="M185.5,143.7c.2,0,.4,0,.6,0,11,12,16.4,26,15.7,42.3-.5,11.5-4.3,22-11,31.4-1.2,1.7-2.2,1.8-3.7.3-7.1-7-14.3-14-21.5-20.9-.9-.9-1.4-1.7-.8-3,6.3-13.1.2-27.1-13-32.4.7-.2,1.4-.4,2.1-.6,12.3-2.4,23-7.7,31.6-17Z"/>
        <path class="cls-2" d="M89.3,199.3c0,.2,0,.4-.1.6-18.1,3.8-34.6.6-49.3-10.9-7.5-5.8-13.1-13.3-17-21.9-.9-2-.5-2.6,1.5-3.2,9.6-2.6,19.2-5.4,28.8-8.1,1.2-.3,2.1-.7,3.2.7,9.2,12,21.7,13.8,34.2,5-1.1,5.6-3.1,11-3.5,16.8-.5,7.2-.2,14.2,2.3,21Z"/>
        <path class="cls-7" d="M89.2,87.3c8.1-26.4,33.9-43.4,61.2-40.4,2,.2,2.5.9,2,2.8-2.5,9.9-5.1,19.8-7.5,29.7-.4,1.5-1.3,1.6-2.5,1.8-12.2,1.6-19.9,9.2-21.4,21.3-.2,1.9,0,3.8.3,5.7-.9-.8-2-1.6-2.8-2.5-7.4-8.1-16.2-13.8-26.7-16.9-1-.3-2.1-.4-2.7-1.4Z"/>
        <path class="cls-3" d="M89.2,87.3c.6,1,1.7,1.1,2.7,1.4,10.5,3.1,19.3,8.8,26.7,16.9.8.9,1.9,1.7,2.8,2.5.3,1.5,1.1,2.7,2,3.8,3.4,4.7,5.3,10.1,7.6,15.3-.1.2-.2.4-.4.6-7.3,1.2-13.6,4.6-19.5,8.7-3,2.1-6.4,4-8,7.6-.4,0-.8,0-1.1,0,0-1.7-1.5-2.5-2.4-3.5-3.6-4.4-6.1-9.5-8.9-14.3-.9-4.7-2.8-9.2-3.4-14-1-7.5-.7-14.9,1.1-22.2.2-.8.5-1.6,0-2.5.2-.2.5-.3.7-.5Z"/>
        <path class="cls-2" d="M130.6,127.9c.1-.2.2-.4.4-.6,6.7-1.4,13.4-1.9,20.3-1,12.7,2,24,7,33.3,16.2.4.4.7.8,1,1.2-8.5,9.3-19.2,14.7-31.6,17-.7.1-1.4.4-2.1.6-6.8.6-13.6.6-20.4-.9-.2-.3-.4-.6-.7-.9,2.8-10.5,2.9-21.1-.2-31.6Z"/>
        <path class="cls-7" d="M130.8,159.5c.2.3.4.6.7.9-.7.2-1,.6-1.2,1.3-2,5.9-4.7,11.4-8.5,16.4-.3.4-.4,1-.6,1.5-2.7,1.5-4.4,4.1-6.6,6.2-6.6,6.4-14.5,10.6-23.2,13.3-.7.2-1.4.2-2.2.3-2.5-6.8-2.8-13.8-2.3-21,.4-5.8,2.5-11.2,3.5-16.8,2.2-3.7,4.2-7.5,6.6-11.1,1.4-2.2,3.2-4.1,4.9-6.2.4,0,.8,0,1.1,0,5.6,5.6,11.9,10,19.3,12.9,2.7,1.1,5.3,2.5,8.4,2.3Z"/>
      </g>
    </g>
  </g>
</svg>