<?xml version="1.0" encoding="UTF-8"?>
<svg xmlns="http://www.w3.org/2000/svg" version="1.1" viewBox="0 0 443 160">
  <!-- Generator: Adobe Illustrator 28.7.0, SVG Export Plug-In . SVG Version: 1.2.0 Build 136)  -->
  <g>
    <g id="Layer_1">
      <g>
        <path d="M6,18c1.8,0,3.7-.1,5.5-.1,84.5,0,168.9,0,253.4,0,2,0,3.9,0,6.1,0v13.4H20v105.8h406.4V31.4h-51.9v-13.4h65.6v133H6c0-44.3,0-88.7,0-133Z"/>
        <path d="M342,1c2.6,2.8,5.1,5.6,7.9,8.6-12.3,11.7-24.6,23.4-36.5,34.8-5.2-4.9-11.5-10.9-17.7-16.9,2.9-2.9,5.7-5.6,8.9-8.8,3,3.1,6.1,6.3,8.4,8.6,9.5-8.9,18.8-17.6,28.1-26.4.3,0,.7,0,1,0Z"/>
        <path d="M388.9,103.6c2.2,2.4,4.4,4.6,6.7,7.1-3.3,3.1-6.6,6.2-10,9.3,0,0-.4,0-.5-.2-4.4-5.4-9.1-7.5-16.8-6.4-15.9,2.1-28.8-9.2-30.6-24.8-1.7-15.3,8.1-28.6,23-31.4,15.6-2.9,30.2,6.2,33.7,21.1,2.1,9.1.4,17.5-5.5,25.2ZM366.2,70c-8.2,0-14.2,6.6-14.2,15.4,0,8.9,6.4,15.7,14.7,15.4,8-.2,14.2-7.1,14-15.7-.2-8.7-6.4-15.2-14.5-15.1Z"/>
        <path d="M137.6,56.9c16.5,0,28.8,12.3,28.7,28.7-.1,16.3-12.6,28.3-29.2,28.2-16.2-.1-28.4-12.3-28.4-28.5,0-16.3,12.4-28.5,28.9-28.4ZM123.1,85.3c0,8.7,6,15.4,14.1,15.6,8.2.2,14.7-6.8,14.7-15.6,0-8.6-6.3-15.3-14.4-15.3-8.1,0-14.3,6.6-14.3,15.3Z"/>
        <path d="M217,90.6c5.3,7.1,10.5,14.2,16.4,22.2-5.6,0-10.5.2-15.3-.1-1.1,0-2.3-1.7-3.2-2.8-3.7-4.9-7.5-9.8-11-14.8-2-2.9-4.3-3.8-7.9-2.6v20h-13.8v-53.9c10.4,0,20.8-.6,31.2.2,7.1.6,12.1,5.4,13.6,12.7,1.5,7.5-1.3,13.3-8.1,17.8-.6.4-1.1.8-1.9,1.3ZM196.3,70v10.2c3.8,0,7.3,0,10.8,0,3.2,0,5.7-1.3,5.8-4.9,0-3.5-2.2-5.1-5.4-5.3-3.6-.2-7.3,0-11.2,0Z"/>
        <path d="M247.1,58.1c9.3,0,18.1-.4,26.9,0,10.5.5,17.2,7.6,17.1,17.1,0,9.5-6.9,16.2-17.4,16.8-4,.2-7.9,0-12.6,0v20.3h-14.1v-54.4ZM261.3,70.1v10.5c3.7,0,7.4.6,10.6-.2,2-.5,4.7-3.4,4.6-5.2,0-1.7-2.9-4.3-4.9-4.9-3.1-.8-6.5-.2-10.3-.2Z"/>
        <path d="M93.7,73.5c-10.2-4.1-19.7-6.6-27.3,3.1-4,5-3.6,13.2.4,18.2,5.4,6.8,14.1,7.6,28,2.3,0,1.5,0,2.7,0,4,0,10.6-.5,11.2-11,12.6-21.2,2.8-37.9-13.7-34.2-33.7,3.6-19.9,25.6-27.1,41.8-20.8,1.1.4,2.2,2.4,2.3,3.7.3,3.3.1,6.6.1,10.7Z"/>
        <path d="M320.8,58.3v54.3h-13.4v-54.3h13.4Z"/>
      </g>
    </g>
  </g>
</svg>