<?xml version="1.0" encoding="UTF-8"?>
<svg xmlns="http://www.w3.org/2000/svg" version="1.1" viewBox="0 0 792 288">
  <defs>
    <style>
      .cls-1 {
        fill: none;
      }
    </style>
  </defs>
  <!-- Generator: Adobe Illustrator 28.7.0, SVG Export Plug-In . SVG Version: 1.2.0 Build 136)  -->
  <g>
    <g id="zone_de_sécurité">
      <rect class="cls-1" x="-127.5" y="-56.8" width="1046.9" height="401.6"/>
      <g>
        <path d="M580.9,245.4V101.7l-76.6,8.3,49.3,16.3v143.5l-49.9-16.4-30.6,3.1V93.1c0-7,5.7-13.4,12.8-14.2l131.8-15.1v163.7c0,7.1-5.7,13.4-12.8,14.2l-24,3.6Z"/>
        <path d="M86.8,245.8c13,0,23.7-2,32.3-5.5,8.6-3.5,15.3-8.6,20.5-15,10.4-12.8,15.2-31.8,15.1-55.4,0-17.6-2.7-32.8-8.4-44.6-5.8-11.8-14.3-20.4-27.3-25.7-8.6-3.5-19.3-5.5-32.3-5.5s-23.7,2-32.3,5.5c-8.6,3.5-15.3,8.6-20.5,15-10.4,12.8-15.2,31.8-15.1,55.3,0,17.6,2.6,32.8,8.4,44.6,5.8,11.8,14.3,20.4,27.2,25.7,8.6,3.5,19.3,5.5,32.3,5.5M86.8,117c5.1,0,9.8.7,14,2.2,4.2,1.5,7.8,3.8,10.8,6.7,5.9,5.9,9,14.1,10.6,23.4,1.1,6.2,1.5,13.1,1.5,20.5,0,8.4-.5,16.1-1.9,23-1.4,6.9-3.6,13-7.4,18-2.5,3.3-5.7,6.1-9.5,8.2-5.1,2.7-11.1,4-17.9,4h0c-5.2,0-9.8-.7-14-2.2-4.2-1.5-7.8-3.8-10.8-6.8-5.9-6-9-14.1-10.6-23.5-1.1-6.3-1.4-13.2-1.5-20.7,0-8.4.5-16,1.9-22.8,1.4-6.8,3.7-12.9,7.4-17.9,2.5-3.3,5.7-6.1,9.5-8.1,5.1-2.7,11.1-4,18-4"/>
        <path d="M672.4,99.6c-8.6,3.5-15.3,8.6-20.5,15-10.4,12.8-15.2,31.8-15.2,55.3s2.7,32.8,8.4,44.6c5.8,11.8,14.3,20.4,27.3,25.7,8.6,3.5,19.3,5.5,32.3,5.5,13,0,23.4-3.3,32.2-7.6l5.5,7.5h30.8l-15.5-20.4c10.1-12.4,15.1-32.3,15.1-55.4,0-17.6-2.6-32.8-8.4-44.6-5.8-11.8-14.3-20.4-27.3-25.7-8.6-3.5-19.3-5.5-32.3-5.5-13,0-23.7,2-32.3,5.5M704.8,223c-5.2,0-9.8-.7-14-2.2-4.2-1.5-7.8-3.8-10.8-6.8-5.9-6-9-14.1-10.6-23.5-1.1-6.3-1.5-13.2-1.5-20.7,0-8.4.5-16,1.9-22.8,1.4-6.8,3.7-12.9,7.4-17.9,2.5-3.3,5.7-6.1,9.5-8.1,5.1-2.7,11.1-4,18-4,5.2,0,9.8.7,14,2.2,4.2,1.5,7.8,3.8,10.8,6.7,5.9,5.9,9,14.1,10.6,23.4,1.1,6.2,1.5,13.1,1.5,20.5s-.5,16.1-1.9,23c-1.4,6.9-3.6,13-7.4,18-2.5,3.3-5.7,6.1-9.5,8.2-5.1,2.7-11.1,4-18,4h0Z"/>
        <path d="M266.7,193.5h-57.2l28.6-74.3,28.6,74.3ZM258.9,96.2h-28c-9.6,0-16.1,6.2-19.2,14.3h0l-51.3,132.1h30.3l10.3-26.9h74.2l10.3,26.9h30.3l-56.9-146.5Z"/>
        <path d="M580.7,35c0,9.2-7.5,16.7-16.7,16.7s-16.7-7.5-16.7-16.7,7.5-16.7,16.7-16.7c9.2,0,16.7,7.5,16.7,16.7"/>
        <path d="M414.8,210.7c-2.5,3.3-5.7,6.1-9.5,8.2-5.1,2.7-11.1,4-18,4h0c-5.2,0-9.8-.7-14-2.2-4.2-1.5-7.8-3.8-10.8-6.8-5.9-6-9-14.1-10.6-23.5-1.1-6.3-1.4-13.2-1.5-20.7,0-8.4.5-16,1.9-22.8,1.4-6.8,3.7-12.9,7.4-17.9,2.5-3.3,5.7-6.1,9.5-8.1,5.1-2.7,11.1-4,18-4,5.1,0,9.8.7,14,2.2,4.2,1.5,7.8,3.8,10.8,6.7,4.4,4.4,7.1,9.9,9,16.2h31.6c-1.4-6.2-3.2-11.8-5.7-16.9-5.8-11.8-14.3-20.4-27.3-25.7-8.6-3.5-19.3-5.5-32.3-5.5s-23.7,2-32.4,5.5c-8.6,3.5-15.3,8.6-20.5,15-10.4,12.8-15.2,31.8-15.1,55.3,0,17.6,2.6,32.8,8.4,44.6,5.8,11.8,14.3,20.4,27.2,25.7,8.6,3.5,19.3,5.5,32.4,5.5s23.7-2,32.3-5.5c8.6-3.5,15.3-8.6,20.5-15,6-7.4,10.1-16.8,12.5-27.9h-31.5c-1.4,5.1-3.4,9.6-6.3,13.5Z"/>
      </g>
    </g>
  </g>
</svg>