<svg xmlns="http://www.w3.org/2000/svg" xmlns:xlink="http://www.w3.org/1999/xlink" width="250" zoomAndPan="magnify" viewBox="0 0 187.5 187.499992" height="250" preserveAspectRatio="xMidYMid meet" version="1.0"><defs><g/><clipPath id="22004bf616"><path d="M 37.207031 36.394531 L 156.140625 36.394531 L 156.140625 141.113281 L 37.207031 141.113281 Z M 37.207031 36.394531 " clip-rule="nonzero"/></clipPath></defs><g clip-path="url(#22004bf616)"><path fill="#41434c" d="M 96.601562 36.527344 C 96.101562 36.582031 95.632812 36.8125 95.277344 37.167969 L 38.089844 94.359375 C 37.226562 95.230469 37.234375 96.640625 38.105469 97.503906 C 38.519531 97.914062 39.078125 98.144531 39.664062 98.148438 L 51.742188 98.148438 L 51.742188 138.824219 C 51.746094 140.046875 52.738281 141.035156 53.960938 141.039062 L 139.746094 141.039062 C 140.96875 141.035156 141.957031 140.046875 141.960938 138.824219 L 141.960938 98.148438 L 154.042969 98.148438 C 155.269531 98.144531 156.261719 97.144531 156.257812 95.917969 C 156.253906 95.332031 156.023438 94.773438 155.617188 94.359375 L 141.675781 80.417969 L 141.675781 61.332031 C 141.671875 60.109375 140.679688 59.121094 139.460938 59.117188 L 130.023438 59.117188 C 128.800781 59.121094 127.8125 60.109375 127.808594 61.332031 L 127.808594 66.550781 L 98.425781 37.167969 C 97.949219 36.6875 97.273438 36.449219 96.601562 36.527344 Z M 96.601562 36.527344 " fill-opacity="1" fill-rule="nonzero"/></g><g fill="#ffffff" fill-opacity="1"><g transform="translate(81.408468, 119.753708)"><g><path d="M 19.375 -11.328125 C 19.375 -12.960938 19.039062 -14.25 18.375 -15.1875 C 17.707031 -16.132812 16.609375 -17.019531 15.078125 -17.84375 C 12.066406 -19.175781 9.835938 -20.457031 8.390625 -21.6875 C 6.941406 -22.914062 5.863281 -24.320312 5.15625 -25.90625 C 4.445312 -27.488281 4.09375 -29.375 4.09375 -31.5625 C 4.09375 -34.820312 5 -37.519531 6.8125 -39.65625 C 8.625 -41.789062 11.015625 -43.054688 13.984375 -43.453125 L 13.984375 -49.765625 L 18.4375 -49.765625 L 18.4375 -43.328125 C 21.382812 -42.753906 23.675781 -41.257812 25.3125 -38.84375 C 26.957031 -36.425781 27.78125 -33.359375 27.78125 -29.640625 L 19.4375 -29.640625 C 19.4375 -32.003906 19.097656 -33.765625 18.421875 -34.921875 C 17.742188 -36.078125 16.863281 -36.65625 15.78125 -36.65625 C 14.738281 -36.65625 13.921875 -36.203125 13.328125 -35.296875 C 12.742188 -34.398438 12.453125 -33.144531 12.453125 -31.53125 C 12.453125 -30.132812 12.753906 -28.972656 13.359375 -28.046875 C 13.972656 -27.117188 15.132812 -26.15625 16.84375 -25.15625 C 19.988281 -23.664062 22.253906 -22.304688 23.640625 -21.078125 C 25.023438 -19.847656 26.050781 -18.457031 26.71875 -16.90625 C 27.382812 -15.351562 27.71875 -13.515625 27.71875 -11.390625 C 27.71875 -8.066406 26.835938 -5.359375 25.078125 -3.265625 C 23.328125 -1.179688 20.894531 0.0625 17.78125 0.46875 L 17.78125 6.34375 L 13.359375 6.34375 L 13.359375 0.46875 C 9.960938 -0.0195312 7.335938 -1.46875 5.484375 -3.875 C 3.640625 -6.28125 2.71875 -9.492188 2.71875 -13.515625 L 11.0625 -13.515625 C 11.0625 -11.191406 11.429688 -9.40625 12.171875 -8.15625 C 12.921875 -6.90625 14.046875 -6.28125 15.546875 -6.28125 C 16.742188 -6.28125 17.679688 -6.726562 18.359375 -7.625 C 19.035156 -8.519531 19.375 -9.753906 19.375 -11.328125 Z M 19.375 -11.328125 "/></g></g></g></svg>