<svg xmlns="http://www.w3.org/2000/svg" xmlns:xlink="http://www.w3.org/1999/xlink" width="250" zoomAndPan="magnify" viewBox="0 0 187.5 187.499992" height="250" preserveAspectRatio="xMidYMid meet" version="1.0"><defs><clipPath id="c08f0f68f1"><path d="M 23.746094 18.699219 L 163.625 18.699219 L 163.625 164.5625 L 23.746094 164.5625 Z M 23.746094 18.699219 " clip-rule="nonzero"/></clipPath></defs><g clip-path="url(#c08f0f68f1)"><path fill="#41434c" d="M 138.050781 33.3125 L 131.269531 33.3125 L 131.269531 23.183594 C 131.269531 20.746094 129.289062 18.785156 126.871094 18.785156 C 124.433594 18.785156 122.472656 20.765625 122.472656 23.183594 L 122.472656 33.328125 L 62 33.328125 L 62 23.183594 C 62 20.746094 60.019531 18.785156 57.601562 18.785156 C 55.164062 18.785156 53.203125 20.765625 53.203125 23.183594 L 53.203125 33.328125 L 48.929688 33.328125 C 35.019531 33.328125 23.746094 44.601562 23.746094 58.511719 L 23.746094 139.507812 C 23.746094 153.414062 35.019531 164.6875 48.929688 164.6875 L 138.050781 164.6875 C 151.960938 164.6875 163.234375 153.414062 163.234375 139.507812 L 163.234375 58.511719 C 163.25 44.601562 151.960938 33.3125 138.050781 33.3125 Z M 122.453125 37.964844 L 122.453125 47.109375 C 122.453125 49.546875 124.433594 51.511719 126.851562 51.511719 C 129.289062 51.511719 131.253906 49.527344 131.253906 47.109375 L 131.253906 38.3125 C 134.070312 39.945312 135.980469 43 135.980469 46.492188 C 135.980469 51.710938 131.742188 55.945312 126.523438 55.945312 C 121.308594 55.945312 117.070312 51.710938 117.070312 46.492188 C 117.109375 42.730469 119.289062 39.492188 122.453125 37.964844 Z M 53.183594 38.128906 L 53.183594 47.109375 C 53.183594 49.546875 55.164062 51.511719 57.582031 51.511719 C 60.019531 51.511719 61.984375 49.527344 61.984375 47.109375 L 61.984375 38.128906 C 64.984375 39.710938 67.019531 42.855469 67.019531 46.472656 C 67.019531 51.691406 62.78125 55.929688 57.566406 55.929688 C 52.347656 55.929688 48.109375 51.691406 48.109375 46.472656 C 48.148438 42.855469 50.203125 39.710938 53.183594 38.128906 Z M 154.433594 139.488281 C 154.433594 148.523438 147.089844 155.851562 138.070312 155.851562 L 48.929688 155.851562 C 39.894531 155.851562 32.566406 148.507812 32.566406 139.488281 L 32.566406 72.398438 L 154.433594 72.398438 Z M 154.433594 139.488281 " fill-opacity="1" fill-rule="nonzero"/></g><path fill="#41434c" d="M 62.128906 97.800781 L 49.929688 97.800781 C 48.945312 97.800781 48.148438 97 48.148438 96.015625 L 48.148438 83.816406 C 48.148438 82.835938 48.945312 82.035156 49.929688 82.035156 L 62.128906 82.035156 C 63.109375 82.035156 63.910156 82.835938 63.910156 83.816406 L 63.910156 96.015625 C 63.890625 97 63.109375 97.800781 62.128906 97.800781 Z M 62.128906 97.800781 " fill-opacity="1" fill-rule="nonzero"/><path fill="#41434c" d="M 62.128906 122.816406 L 49.929688 122.816406 C 48.945312 122.816406 48.148438 122.015625 48.148438 121.035156 L 48.148438 108.835938 C 48.148438 107.851562 48.945312 107.054688 49.929688 107.054688 L 62.128906 107.054688 C 63.109375 107.054688 63.910156 107.851562 63.910156 108.835938 L 63.910156 121.035156 C 63.890625 122.035156 63.109375 122.816406 62.128906 122.816406 Z M 62.128906 122.816406 " fill-opacity="1" fill-rule="nonzero"/><path fill="#41434c" d="M 62.128906 147.851562 L 49.929688 147.851562 C 48.945312 147.851562 48.148438 147.050781 48.148438 146.070312 L 48.148438 133.871094 C 48.148438 132.886719 48.945312 132.089844 49.929688 132.089844 L 62.128906 132.089844 C 63.109375 132.089844 63.910156 132.886719 63.910156 133.871094 L 63.910156 146.089844 C 63.890625 147.050781 63.109375 147.851562 62.128906 147.851562 Z M 62.128906 147.851562 " fill-opacity="1" fill-rule="nonzero"/><path fill="#41434c" d="M 87.144531 97.800781 L 74.945312 97.800781 C 73.964844 97.800781 73.164062 97 73.164062 96.015625 L 73.164062 83.816406 C 73.164062 82.835938 73.964844 82.035156 74.945312 82.035156 L 87.144531 82.035156 C 88.128906 82.035156 88.925781 82.835938 88.925781 83.816406 L 88.925781 96.015625 C 88.925781 97 88.128906 97.800781 87.144531 97.800781 Z M 87.144531 97.800781 " fill-opacity="1" fill-rule="nonzero"/><path fill="#41434c" d="M 87.144531 122.816406 L 74.945312 122.816406 C 73.964844 122.816406 73.164062 122.015625 73.164062 121.035156 L 73.164062 108.835938 C 73.164062 107.851562 73.964844 107.054688 74.945312 107.054688 L 87.144531 107.054688 C 88.128906 107.054688 88.925781 107.851562 88.925781 108.835938 L 88.925781 121.035156 C 88.925781 122.035156 88.128906 122.816406 87.144531 122.816406 Z M 87.144531 122.816406 " fill-opacity="1" fill-rule="nonzero"/><path fill="#41434c" d="M 87.144531 147.851562 L 74.945312 147.851562 C 73.964844 147.851562 73.164062 147.050781 73.164062 146.070312 L 73.164062 133.871094 C 73.164062 132.886719 73.964844 132.089844 74.945312 132.089844 L 87.144531 132.089844 C 88.128906 132.089844 88.925781 132.886719 88.925781 133.871094 L 88.925781 146.089844 C 88.925781 147.050781 88.128906 147.851562 87.144531 147.851562 Z M 87.144531 147.851562 " fill-opacity="1" fill-rule="nonzero"/><path fill="#41434c" d="M 112.179688 97.800781 L 99.980469 97.800781 C 99 97.800781 98.199219 97 98.199219 96.015625 L 98.199219 83.816406 C 98.199219 82.835938 99 82.035156 99.980469 82.035156 L 112.179688 82.035156 C 113.164062 82.035156 113.960938 82.835938 113.960938 83.816406 L 113.960938 96.015625 C 113.945312 97 113.164062 97.800781 112.179688 97.800781 Z M 112.179688 97.800781 " fill-opacity="1" fill-rule="nonzero"/><path fill="#41434c" d="M 112.179688 122.816406 L 99.980469 122.816406 C 99 122.816406 98.199219 122.015625 98.199219 121.035156 L 98.199219 108.835938 C 98.199219 107.851562 99 107.054688 99.980469 107.054688 L 112.179688 107.054688 C 113.164062 107.054688 113.960938 107.851562 113.960938 108.835938 L 113.960938 121.035156 C 113.945312 122.035156 113.164062 122.816406 112.179688 122.816406 Z M 112.179688 122.816406 " fill-opacity="1" fill-rule="nonzero"/><path fill="#41434c" d="M 112.179688 147.851562 L 99.980469 147.851562 C 99 147.851562 98.199219 147.050781 98.199219 146.070312 L 98.199219 133.871094 C 98.199219 132.886719 99 132.089844 99.980469 132.089844 L 112.179688 132.089844 C 113.164062 132.089844 113.960938 132.886719 113.960938 133.871094 L 113.960938 146.089844 C 113.945312 147.050781 113.164062 147.851562 112.179688 147.851562 Z M 112.179688 147.851562 " fill-opacity="1" fill-rule="nonzero"/><path fill="#41434c" d="M 137.214844 97.800781 L 125.015625 97.800781 C 124.035156 97.800781 123.234375 97 123.234375 96.015625 L 123.234375 83.816406 C 123.234375 82.835938 124.035156 82.035156 125.015625 82.035156 L 137.214844 82.035156 C 138.199219 82.035156 138.996094 82.835938 138.996094 83.816406 L 138.996094 96.015625 C 138.980469 97 138.179688 97.800781 137.214844 97.800781 Z M 137.214844 97.800781 " fill-opacity="1" fill-rule="nonzero"/><path fill="#41434c" d="M 137.214844 122.816406 L 125.015625 122.816406 C 124.035156 122.816406 123.234375 122.015625 123.234375 121.035156 L 123.234375 108.835938 C 123.234375 107.851562 124.035156 107.054688 125.015625 107.054688 L 137.214844 107.054688 C 138.199219 107.054688 138.996094 107.851562 138.996094 108.835938 L 138.996094 121.035156 C 138.980469 122.035156 138.179688 122.816406 137.214844 122.816406 Z M 137.214844 122.816406 " fill-opacity="1" fill-rule="nonzero"/></svg>