<svg xmlns="http://www.w3.org/2000/svg" xmlns:xlink="http://www.w3.org/1999/xlink" width="250" zoomAndPan="magnify" viewBox="0 0 187.5 187.499992" height="250" preserveAspectRatio="xMidYMid meet" version="1.0"><defs><clipPath id="953376614c"><path d="M 21.421875 83 L 63 83 L 63 163 L 21.421875 163 Z M 21.421875 83 " clip-rule="nonzero"/></clipPath><clipPath id="2d419f1b5a"><path d="M 124 18.699219 L 165.789062 18.699219 L 165.789062 163 L 124 163 Z M 124 18.699219 " clip-rule="nonzero"/></clipPath></defs><g clip-path="url(#953376614c)"><path fill="#41434c" d="M 28.398438 162.855469 L 55.460938 162.855469 C 59.320312 162.855469 62.4375 159.738281 62.4375 155.878906 L 62.4375 90.777344 C 62.4375 86.917969 59.320312 83.800781 55.460938 83.800781 L 28.398438 83.800781 C 24.539062 83.800781 21.421875 86.917969 21.421875 90.777344 L 21.421875 155.878906 C 21.421875 159.738281 24.539062 162.855469 28.398438 162.855469 Z M 28.398438 162.855469 " fill-opacity="1" fill-rule="nonzero"/></g><path fill="#41434c" d="M 79.96875 162.855469 L 107.03125 162.855469 C 110.890625 162.855469 114.007812 159.738281 114.007812 155.878906 L 114.007812 58.226562 C 114.007812 54.367188 110.890625 51.25 107.03125 51.25 L 79.96875 51.25 C 76.109375 51.25 72.992188 54.367188 72.992188 58.226562 L 72.992188 155.878906 C 72.992188 159.738281 76.109375 162.855469 79.96875 162.855469 Z M 79.96875 162.855469 " fill-opacity="1" fill-rule="nonzero"/><g clip-path="url(#2d419f1b5a)"><path fill="#41434c" d="M 165.578125 155.878906 L 165.578125 25.675781 C 165.578125 21.816406 162.460938 18.699219 158.601562 18.699219 L 131.539062 18.699219 C 127.679688 18.699219 124.5625 21.816406 124.5625 25.675781 L 124.5625 155.878906 C 124.5625 159.738281 127.679688 162.855469 131.539062 162.855469 L 158.601562 162.855469 C 162.460938 162.855469 165.578125 159.738281 165.578125 155.878906 Z M 165.578125 155.878906 " fill-opacity="1" fill-rule="nonzero"/></g></svg>