<?xml version="1.0" encoding="utf-8"?>
<!-- Generator: Adobe Illustrator 28.0.0, SVG Export Plug-In . SVG Version: 6.00 Build 0)  -->
<svg version="1.1" id="Capa_1" xmlns="http://www.w3.org/2000/svg" xmlns:xlink="http://www.w3.org/1999/xlink" x="0px" y="0px"
	 viewBox="0 0 102.62 106.21" style="enable-background:new 0 0 102.62 106.21;" xml:space="preserve">
<style type="text/css">
	.st0{fill:#395058;}
</style>
<g>
	<path class="st0" d="M90.55,15.51c-0.74,4.1-2.83,4.71-5.82,2.04c-2.18-1.94-4.67-2.32-7.4-2.31c-18.47,0.02-36.94-0.03-55.41,0.03
		c-6.39,0.02-8.28,1.92-8.31,8.46c-0.08,18.31-0.08,36.61,0,54.92c0.03,7.05,1.93,8.85,8.95,8.86c18.14,0.04,36.27,0.04,54.41,0
		c7.26-0.02,8.7-1.51,8.73-8.89c0.05-12.15-0.04-24.3,0.07-36.44c0.05-5.28,1.3-5.97,5.82-3.68c-0.01,15.62-0.02,31.23-0.03,46.85
		c-0.34,0.7-0.69,1.4-1.04,2.1c-1.6,1.59-3.2,3.17-4.79,4.76c-0.72,0.33-1.44,0.67-2.15,1c-22.55,0.01-45.11,0.02-67.66,0.03
		c-1.34-0.72-2.68-1.44-4.02-2.17c-0.26-0.25-0.52-0.49-0.79-0.74c-1.09-1.97-2.18-3.95-3.26-5.92c-0.11-1-0.23-2.01-0.34-3.01
		c0.62-19.95,0.63-39.9,0-59.85c0.1-1.01,0.2-2.02,0.31-3.04c0.46-1.3,0.93-2.59,1.39-3.89c1.24-1.24,2.47-2.48,3.71-3.72
		c0.98-0.43,1.97-0.85,2.95-1.28c22.59,0,45.19,0.01,67.78,0.01c0.69,0.33,1.39,0.66,2.08,0.99C87.33,12.24,88.94,13.88,90.55,15.51
		z"/>
	<path class="st0" d="M20.71,43.59c0.16-3.47,1.62-5.36,4.06-6.53c2.54-1.22,5.04-0.77,6.94,1.11c3.3,3.28,6.35,6.81,9.48,10.25
		c4.62,5.08,4.49,4.99,8.8-0.16C62.11,33.79,77.33,24.69,96.17,22c1.74-0.25,4.05-1.15,4.78,1.17c0.72,2.27-1.58,2.98-3.2,3.76
		c-20.56,9.84-36.69,24.49-48.05,44.29c-1.77,3.09-3.67,3.67-6.14,0.83C36.58,64,29.58,55.98,22.63,47.91
		C21.42,46.51,20.54,44.88,20.71,43.59z"/>
</g>
</svg>
