<?xml version="1.0" encoding="UTF-8"?>
<!DOCTYPE svg PUBLIC "-//W3C//DTD SVG 1.1//EN" "http://www.w3.org/Graphics/SVG/1.1/DTD/svg11.dtd">
<svg xmlns="http://www.w3.org/2000/svg" version="1.1" width="727px" height="322px" style="shape-rendering:geometricPrecision; text-rendering:geometricPrecision; image-rendering:optimizeQuality; fill-rule:evenodd; clip-rule:evenodd" xmlns:xlink="http://www.w3.org/1999/xlink">
<g><path style="opacity:0.987" fill="#fefffe" d="M -0.5,-0.5 C 12.1667,-0.5 24.8333,-0.5 37.5,-0.5C 37.5,78.8333 37.5,158.167 37.5,237.5C 49.8333,237.5 62.1667,237.5 74.5,237.5C 74.5,247.833 74.5,258.167 74.5,268.5C 49.5,268.5 24.5,268.5 -0.5,268.5C -0.5,178.833 -0.5,89.1667 -0.5,-0.5 Z"/></g>
<g><path style="opacity:0.971" fill="#fefffe" d="M 95.5,-0.5 C 112.5,-0.5 129.5,-0.5 146.5,-0.5C 146.667,86.834 146.5,174.167 146,261.5C 145.141,289.321 132.307,309.321 107.5,321.5C 106.5,321.5 105.5,321.5 104.5,321.5C 98.7537,311.745 93.4204,301.745 88.5,291.5C 93.5315,287.389 98.0315,282.723 102,277.5C 104.346,270.771 105.679,263.771 106,256.5C 106.5,175.834 106.667,95.1674 106.5,14.5C 102.833,14.5 99.1667,14.5 95.5,14.5C 95.5,9.5 95.5,4.5 95.5,-0.5 Z"/></g>
<g><path style="opacity:0.826" fill="#fefffe" d="M 228.5,38.5 C 230.833,38.5 233.167,38.5 235.5,38.5C 235.667,101.834 235.5,165.168 235,228.5C 232.959,229.423 230.792,229.756 228.5,229.5C 228.5,165.833 228.5,102.167 228.5,38.5 Z"/></g>
<g><path style="opacity:0.685" fill="#fefffe" d="M 316.5,95.5 C 318.5,95.5 320.5,95.5 322.5,95.5C 322.5,103.5 322.5,111.5 322.5,119.5C 320.533,119.739 318.699,119.406 317,118.5C 316.5,110.841 316.334,103.174 316.5,95.5 Z"/></g>
<g><path style="opacity:0.707" fill="#fefffe" d="M 352.5,95.5 C 355.5,95.5 358.5,95.5 361.5,95.5C 362.559,100.178 363.725,104.844 365,109.5C 365.389,104.944 366.555,100.61 368.5,96.5C 371.428,95.5159 374.428,95.1826 377.5,95.5C 377.5,103.5 377.5,111.5 377.5,119.5C 375.167,119.5 372.833,119.5 370.5,119.5C 370.665,116.15 370.498,112.817 370,109.5C 368.908,112.044 368.241,114.711 368,117.5C 365.959,118.423 363.792,118.756 361.5,118.5C 359.098,105.222 358.098,105.556 358.5,119.5C 356.5,119.5 354.5,119.5 352.5,119.5C 352.5,111.5 352.5,103.5 352.5,95.5 Z"/></g>
<g><path style="opacity:0.714" fill="#fefffe" d="M 406.5,95.5 C 409.5,95.5 412.5,95.5 415.5,95.5C 416.559,100.178 417.725,104.844 419,109.5C 420.152,104.874 420.985,100.207 421.5,95.5C 424.777,95.2161 427.943,95.5495 431,96.5C 431.667,103.833 431.667,111.167 431,118.5C 429,119.833 427,119.833 425,118.5C 424.702,106.729 423.535,106.729 421.5,118.5C 419.5,118.5 417.5,118.5 415.5,118.5C 413.1,103.919 412.1,104.253 412.5,119.5C 410.5,119.5 408.5,119.5 406.5,119.5C 406.5,111.5 406.5,103.5 406.5,95.5 Z"/></g>
<g><path style="opacity:0.789" fill="#fefffe" d="M 464.5,95.5 C 467.518,95.3354 470.518,95.502 473.5,96C 475.667,96.8333 477.167,98.3333 478,100.5C 478.667,105.167 478.667,109.833 478,114.5C 475.024,118.939 470.857,120.439 465.5,119C 462.8,118.033 460.966,116.199 460,113.5C 458.223,106.47 459.723,100.47 464.5,95.5 Z M 467.5,100.5 C 472.012,100.468 474.012,102.801 473.5,107.5C 473.854,112.658 471.688,114.658 467,113.5C 464.932,109.056 465.099,104.723 467.5,100.5 Z"/></g>
<g><path style="opacity:0.753" fill="#fefffe" d="M 507.5,95.5 C 511.846,95.3343 516.179,95.501 520.5,96C 523.683,97.0183 525.016,99.185 524.5,102.5C 524.351,104.32 523.684,105.82 522.5,107C 523.704,108.353 524.371,110.019 524.5,112C 525.151,116.013 523.484,118.346 519.5,119C 515.514,119.499 511.514,119.666 507.5,119.5C 507.5,111.5 507.5,103.5 507.5,95.5 Z M 513.5,100.5 C 521.3,102.275 521.3,103.608 513.5,104.5C 513.5,103.167 513.5,101.833 513.5,100.5 Z M 513.5,109.5 C 516.056,109.132 518.056,109.966 519.5,112C 518.056,114.034 516.056,114.868 513.5,114.5C 513.5,112.833 513.5,111.167 513.5,109.5 Z"/></g>
<g><path style="opacity:0.654" fill="#fefffe" d="M 553.5,95.5 C 555.5,95.5 557.5,95.5 559.5,95.5C 559.5,103.5 559.5,111.5 559.5,119.5C 557.5,119.5 555.5,119.5 553.5,119.5C 553.5,111.5 553.5,103.5 553.5,95.5 Z"/></g>
<g><path style="opacity:0.757" fill="#fefffe" d="M 589.5,95.5 C 591.167,95.5 592.833,95.5 594.5,95.5C 594.5,101.5 594.5,107.5 594.5,113.5C 597.5,113.5 600.5,113.5 603.5,113.5C 603.5,115.5 603.5,117.5 603.5,119.5C 598.833,119.5 594.167,119.5 589.5,119.5C 589.5,111.5 589.5,103.5 589.5,95.5 Z"/></g>
<g><path style="opacity:0.701" fill="#fefffe" d="M 630.5,95.5 C 632.5,95.5 634.5,95.5 636.5,95.5C 636.666,103.174 636.5,110.841 636,118.5C 634.301,119.406 632.467,119.739 630.5,119.5C 630.5,111.5 630.5,103.5 630.5,95.5 Z"/></g>
<g><path style="opacity:0.75" fill="#fefffe" d="M 666.5,95.5 C 671.5,95.5 676.5,95.5 681.5,95.5C 681.5,97.1667 681.5,98.8333 681.5,100.5C 678.167,100.5 674.833,100.5 671.5,100.5C 671.5,101.833 671.5,103.167 671.5,104.5C 674.167,104.5 676.833,104.5 679.5,104.5C 679.5,106.167 679.5,107.833 679.5,109.5C 676.833,109.5 674.167,109.5 671.5,109.5C 671.5,110.833 671.5,112.167 671.5,113.5C 674.833,113.5 678.167,113.5 681.5,113.5C 681.5,115.5 681.5,117.5 681.5,119.5C 676.5,119.5 671.5,119.5 666.5,119.5C 666.5,111.5 666.5,103.5 666.5,95.5 Z"/></g>
<g><path style="opacity:0.815" fill="#fefffe" d="M 726.5,98.5 C 726.5,101.833 726.5,105.167 726.5,108.5C 724.006,110.406 724.006,112.406 726.5,114.5C 726.5,116.167 726.5,117.833 726.5,119.5C 724.801,119.66 723.134,119.494 721.5,119C 720.745,116.825 719.912,114.659 719,112.5C 717.989,111.663 716.822,111.33 715.5,111.5C 715.5,114.167 715.5,116.833 715.5,119.5C 713.833,119.5 712.167,119.5 710.5,119.5C 710.5,111.5 710.5,103.5 710.5,95.5C 714.514,95.3345 718.514,95.5012 722.5,96C 723.984,96.6622 725.317,97.4955 726.5,98.5 Z M 715.5,100.5 C 720.667,99.4919 722.334,101.325 720.5,106C 718.866,106.494 717.199,106.66 715.5,106.5C 715.5,104.5 715.5,102.5 715.5,100.5 Z"/></g>
<g><path style="opacity:0.739" fill="#fefffe" d="M 619.5,147.5 C 622.833,147.833 626.167,148.167 629.5,148.5C 629.5,150.167 629.5,151.833 629.5,153.5C 616.64,153.132 616.307,155.132 628.5,159.5C 631.31,167.17 628.81,171.503 621,172.5C 618.619,171.565 616.119,171.232 613.5,171.5C 613.286,169.856 613.62,168.356 614.5,167C 617.817,166.502 621.15,166.335 624.5,166.5C 624.719,165.325 624.386,164.325 623.5,163.5C 619.97,162.485 616.803,160.819 614,158.5C 612.185,152.855 614.018,149.188 619.5,147.5 Z"/></g>
<g><path style="opacity:0.76" fill="#fefffe" d="M 316.5,148.5 C 321.179,148.334 325.845,148.501 330.5,149C 336.752,153.307 337.085,158.14 331.5,163.5C 336.099,169.017 335.099,171.684 328.5,171.5C 327.833,169.167 327.167,166.833 326.5,164.5C 325.167,164.5 323.833,164.5 322.5,164.5C 322.5,166.833 322.5,169.167 322.5,171.5C 320.5,171.5 318.5,171.5 316.5,171.5C 316.5,163.833 316.5,156.167 316.5,148.5 Z M 322.5,153.5 C 324.5,153.5 326.5,153.5 328.5,153.5C 329.5,158.5 327.5,160.5 322.5,159.5C 322.5,157.5 322.5,155.5 322.5,153.5 Z"/></g>
<g><path style="opacity:0.794" fill="#fefffe" d="M 363.5,148.5 C 368.5,148.5 373.5,148.5 378.5,148.5C 378.5,150.167 378.5,151.833 378.5,153.5C 375.15,153.335 371.817,153.502 368.5,154C 369.833,155 369.833,156 368.5,157C 371.482,157.498 374.482,157.665 377.5,157.5C 377.5,159.167 377.5,160.833 377.5,162.5C 374.482,162.335 371.482,162.502 368.5,163C 369.833,164 369.833,165 368.5,166C 371.817,166.498 375.15,166.665 378.5,166.5C 378.5,168.167 378.5,169.833 378.5,171.5C 373.5,171.5 368.5,171.5 363.5,171.5C 363.5,163.833 363.5,156.167 363.5,148.5 Z"/></g>
<g><path style="opacity:0.795" fill="#fefffe" d="M 410.5,148.5 C 413.833,148.5 417.167,148.5 420.5,148.5C 421.66,155.967 423.326,163.301 425.5,170.5C 423.604,171.466 421.604,171.799 419.5,171.5C 419.5,170.167 419.5,168.833 419.5,167.5C 414.554,168.223 409.887,169.556 405.5,171.5C 407.073,163.834 408.74,156.167 410.5,148.5 Z M 414.5,153.5 C 416.554,156.008 417.554,159.008 417.5,162.5C 416.167,162.5 414.833,162.5 413.5,162.5C 413.963,159.518 414.296,156.518 414.5,153.5 Z"/></g>
<g><path style="opacity:0.686" fill="#fefffe" d="M 452.5,148.5 C 454.833,148.5 457.167,148.5 459.5,148.5C 459.5,154.5 459.5,160.5 459.5,166.5C 461.833,166.5 464.167,166.5 466.5,166.5C 466.5,168.167 466.5,169.833 466.5,171.5C 461.833,171.5 457.167,171.5 452.5,171.5C 452.5,163.833 452.5,156.167 452.5,148.5 Z"/></g>
<g><path style="opacity:0.817" fill="#fefffe" d="M 489.5,148.5 C 495.5,148.5 501.5,148.5 507.5,148.5C 507.5,150.167 507.5,151.833 507.5,153.5C 505.5,153.5 503.5,153.5 501.5,153.5C 501.5,159.5 501.5,165.5 501.5,171.5C 499.833,171.5 498.167,171.5 496.5,171.5C 496.5,165.5 496.5,159.5 496.5,153.5C 494.167,153.5 491.833,153.5 489.5,153.5C 489.5,151.833 489.5,150.167 489.5,148.5 Z"/></g>
<g><path style="opacity:0.882" fill="#fefffe" d="M 535.5,148.5 C 537.167,148.5 538.833,148.5 540.5,148.5C 540.5,156.167 540.5,163.833 540.5,171.5C 538.833,171.5 537.167,171.5 535.5,171.5C 535.5,163.833 535.5,156.167 535.5,148.5 Z"/></g>
<g><path style="opacity:0.743" fill="#fefffe" d="M 570.5,148.5 C 575.833,148.5 581.167,148.5 586.5,148.5C 586.5,150.167 586.5,151.833 586.5,153.5C 583.167,153.5 579.833,153.5 576.5,153.5C 576.5,154.833 576.5,156.167 576.5,157.5C 579.167,157.5 581.833,157.5 584.5,157.5C 584.5,159.167 584.5,160.833 584.5,162.5C 581.833,162.5 579.167,162.5 576.5,162.5C 576.5,163.833 576.5,165.167 576.5,166.5C 579.833,166.5 583.167,166.5 586.5,166.5C 586.5,168.167 586.5,169.833 586.5,171.5C 581.167,171.5 575.833,171.5 570.5,171.5C 570.5,163.833 570.5,156.167 570.5,148.5 Z"/></g>
</svg>
