<?xml version="1.0" encoding="UTF-8"?>
<svg xmlns="http://www.w3.org/2000/svg" xmlns:xlink="http://www.w3.org/1999/xlink" version="1.1" viewBox="0 0 150 100">
  <defs>
    <style>
      .cls-1 {
        fill: none;
        stroke: #000;
        stroke-miterlimit: 10;
      }

      .cls-2 {
        display: none;
      }
    </style>
  </defs>
  <!-- Generator: Adobe Illustrator 28.7.0, SVG Export Plug-In . SVG Version: 1.2.0 Build 136)  -->
  <g>
    <g id="Layer_1" class="cls-2">
      <g id="hqHqSu">
        <image id="hqHqSu-2" data-name="hqHqSu" width="130" height="88" transform="translate(42 29) scale(.5)" xlink:href="house-1.png"/>
      </g>
    </g>
    <g id="Layer_2" class="cls-2">
      <polygon class="cls-1" points="80 58 80 51 73 46.1 65 51 65 58 70.4 58 70.4 53.5 75 53.5 75 58 80 58"/>
      <polygon points="82.5 49.5 73 41 62.5 49.5 63.6 51 73 43.9 82 51 82.5 49.5"/>
    </g>
    <g id="Layer_3">
      <path d="M129.3,96.6v-44.3c0-1.2-.6-2.2-1.6-2.9l-50.9-32.7c-1.1-.7-2.6-.7-3.7,0L22.3,49.5c-1,.6-1.6,1.7-1.6,2.9v44.3c0,1.9,1.5,3.4,3.4,3.4h31.5c1.9,0,3.4-1.5,3.4-3.4v-25c0-1.9,1.5-3.4,3.4-3.4h25.6c1.9,0,3.4,1.5,3.4,3.4v25c0,1.9,1.5,3.4,3.4,3.4h31c1.9,0,3.4-1.5,3.4-3.4Z"/>
      <path d="M137.8,39.8L76.6.5c-.9-.6-2.2-.6-3.1,0L12.2,39.8c-1.4.9-1.7,2.8-.8,4.1l2.8,3.9c.9,1.3,2.6,1.6,3.9.7L73.4,12.1c1-.6,2.2-.6,3.2,0l55.3,36.4c1.3.9,3,.5,3.9-.7l2.8-3.9c1-1.3.6-3.2-.8-4.1Z"/>
    </g>
  </g>
</svg>