<?xml version="1.0" encoding="UTF-8"?>
<svg xmlns="http://www.w3.org/2000/svg" version="1.1" viewBox="0 0 150 100">
  <defs>
    <style>
      .cls-1 {
        fill: #231f20;
      }

      .cls-2 {
        fill: none;
        stroke: #231f20;
        stroke-linecap: round;
        stroke-linejoin: round;
        stroke-width: 3.5px;
      }
    </style>
  </defs>
  <!-- Generator: Adobe Illustrator 28.7.0, SVG Export Plug-In . SVG Version: 1.2.0 Build 136)  -->
  <g>
    <g id="Layer_1">
      <path class="cls-1" d="M109.3,31.5H40.3c-1.2,0-2.4.8-2.4,2v2.1c0,1,1,2,2.4,2h69c1.2,0,2.4-.8,2.4-2v-2.1c-.2-1.1-1.2-2-2.4-2Z"/>
      <path class="cls-1" d="M107.8,38.7v3.8c0,5-2.4,9.5-6.5,12.4l-7.1,5c-5.5,3.8-8.8,10.2-8.8,16.7v23.4h-21.2v-23.4c0-6.7-3.3-12.9-8.8-16.7l-7.1-5c-4-2.8-6.5-7.4-6.5-12.4v-3.8s65.9,0,65.9,0Z"/>
      <path class="cls-1" d="M71.5,31.5V8.8C71.5,4,75.4,0,80.2,0h0C85.1,0,89,4,89,8.8v3.3c0,1.5-1.2,2.8-2.8,2.8h0c-1.5,0-2.8-1.2-2.8-2.8v-2.6c0-1.5-1.2-2.9-2.9-2.9h0c-1.7,0-2.9,1.4-2.9,2.9v22"/>
      <path class="cls-2" d="M59.4,31.5v-2.2c0-1.7-1.2-3.3-2.8-4l-5-1.7"/>
      <line class="cls-2" x1="89" y1="31.5" x2="89" y2="25"/>
    </g>
  </g>
</svg>